<svg width="575" height="365" viewBox="0 0 575 365" fill="none" xmlns="http://www.w3.org/2000/svg">
<g filter="url(#filter0_b_2_11)">
<path d="M0 20C0 8.95432 8.95431 0 20 0H555C566.046 0 575 8.95431 575 20V345C575 356.046 566.046 365 555 365H20C8.95429 365 0 356.046 0 345V20Z" fill="url(#paint0_linear_2_11)"/>
<path d="M20 1H555C565.493 1 574 9.50659 574 20V345C574 355.493 565.493 364 555 364H20C9.50658 364 1 355.493 1 345V20C1 9.5066 9.50659 1 20 1Z" stroke="url(#paint1_linear_2_11)" stroke-width="2"/>
</g>
<defs>
<filter id="filter0_b_2_11" x="-50" y="-50" width="675" height="465" filterUnits="userSpaceOnUse" color-interpolation-filters="sRGB">
<feFlood flood-opacity="0" result="BackgroundImageFix"/>
<feGaussianBlur in="BackgroundImage" stdDeviation="25"/>
<feComposite in2="SourceAlpha" operator="in" result="effect1_backgroundBlur_2_11"/>
<feBlend mode="normal" in="SourceGraphic" in2="effect1_backgroundBlur_2_11" result="shape"/>
</filter>
<linearGradient id="paint0_linear_2_11" x1="-2.63061e-06" y1="41" x2="575" y2="365" gradientUnits="userSpaceOnUse">
<stop stop-color="#C350C8" stop-opacity="0.6"/>
<stop offset="1" stop-color="#C350C8" stop-opacity="0.1"/>
</linearGradient>
<linearGradient id="paint1_linear_2_11" x1="0" y1="0" x2="575" y2="365" gradientUnits="userSpaceOnUse">
<stop stop-color="white" stop-opacity="0.6"/>
<stop offset="1" stop-color="white" stop-opacity="0.1"/>
</linearGradient>
</defs>
</svg>
