<svg xmlns="http://www.w3.org/2000/svg" version="1.1" xmlns:xlink="http://www.w3.org/1999/xlink" xmlns:svgjs="http://svgjs.com/svgjs" width="1440" height="700" preserveAspectRatio="none" viewBox="0 0 1440 700"><g mask="url(&quot;#SvgjsMask1017&quot;)" fill="none"><path d="M 0,173 C 57.6,185.8 172.8,261 288,237 C 403.2,213 460.8,37.6 576,53 C 691.2,68.4 748.8,302.2 864,314 C 979.2,325.8 1036.8,120.4 1152,112 C 1267.2,103.6 1382.4,240 1440,272L1440 700L0 700z" fill="rgba(195, 80, 200, 1)"></path><path d="M 0,381 C 96,422.8 288,571.8 480,590 C 672,608.2 768,481.2 960,472 C 1152,462.8 1344,529.6 1440,544L1440 700L0 700z" fill="rgba(173, 49, 179, 1)"></path></g><defs><mask id="SvgjsMask1017"><rect width="1440" height="700" fill="#ffffff"></rect></mask></defs></svg>